<svg width="279" height="82" viewBox="0 0 279 82" fill="none" xmlns="http://www.w3.org/2000/svg">
    <path fill-rule="evenodd" clip-rule="evenodd"
        d="M278.964 0.000732422L85.5409 0.000744551L83.7312 6.70683C79.6587 2.52735 73.8303 0.000744551 67.6894 0.000744551H37.0797L32.0676 18.6293C31.9107 18.627 31.7536 18.6259 31.5962 18.6259C14.1461 18.6259 0 32.772 0 50.2221C0 67.6721 14.1461 81.8182 31.5962 81.8182C41.2542 81.8182 49.9002 77.5728 55.6958 70.7443H165.042L166.039 66.7643L169.095 70.7443H246.914L256.719 31.5969H270.97L278.964 0.000732422ZM60.4551 63.1052H66.0642C66.2622 63.1052 66.4583 63.1025 66.6526 63.0971C67.307 63.0791 67.9403 63.031 68.5521 62.9544C69.8645 62.79 71.0786 62.4942 72.1927 62.0822C73.7659 61.5005 75.1396 60.6872 76.3091 59.6849C76.7713 59.2889 77.2015 58.8634 77.5996 58.411L76.3091 63.1931H94.3668L105.758 17.6323L107.972 24.0456H119.463L108.899 63.1931H126.957L136.761 24.0456L157.484 24.0449L150.13 27.4887L141.091 63.1927H159.149L162.557 49.5864L172.862 63.1924L199.019 63.1931L178.721 37.6576L207.806 7.55134H185.579L169.109 24.0449L173.085 7.55134H91.3245L83.5009 36.5431C83.5283 36.6462 83.5551 36.7501 83.5811 36.8547C84.0149 38.5966 84.2565 40.5323 84.2565 42.5712C84.2565 43.0663 84.2423 43.5552 84.2145 44.0368C84.198 44.3227 84.1767 44.606 84.1509 44.8864C84.1485 44.9122 84.1461 44.9379 84.1436 44.9637C84.1101 45.3148 84.0693 45.6613 84.0215 46.0027C84.0178 46.0294 84.014 46.0561 84.0102 46.0828C83.969 46.3698 83.923 46.6532 83.8721 46.9326C83.7412 47.6527 83.5786 48.3465 83.3876 49.0084C82.6315 51.6277 81.4283 53.7489 79.9638 55.0324C80.6709 53.2223 81.1309 51.1341 81.2579 48.8879C81.2992 48.1592 81.3038 47.4409 81.2743 46.7375C81.2541 46.2559 81.2179 45.7814 81.1664 45.3153L81.1651 45.3037C81.1624 45.279 81.1596 45.2543 81.1568 45.2296L81.1359 45.3071C81.133 45.2823 81.1302 45.2576 81.1272 45.233L81.1258 45.2212C81.0671 44.7295 80.9881 44.2516 80.8883 43.7878C80.7985 43.3707 80.692 42.9651 80.5684 42.5712C80.2784 41.6466 79.8943 40.7866 79.4128 39.9951C79.1589 39.5778 78.8779 39.1795 78.5693 38.8008C78.3537 38.5364 78.1247 38.2815 77.8821 38.0363C77.2576 37.4054 76.5426 36.839 75.7342 36.3404C74.7544 35.7362 73.6374 35.2315 72.3778 34.8322L72.3764 34.8318C72.352 34.8241 72.3276 34.8164 72.3032 34.8088L72.2732 34.7994C72.2411 34.7965 72.2164 34.7697 72.2164 34.7376C72.2164 34.721 72.2231 34.7058 72.2339 34.6946C72.2438 34.6841 72.2577 34.6772 72.2732 34.6757L72.2849 34.6731L72.3145 34.6664C74.0239 34.2766 75.4724 33.6491 76.6847 32.8183C77.469 32.2808 78.1544 31.6581 78.7474 30.9596C79.048 30.6056 79.3249 30.2321 79.5789 29.8403C81.1803 27.3702 81.8732 24.1737 81.8732 20.5538C81.8732 19.1032 81.6075 17.7021 81.1178 16.3909C79.2134 11.2915 73.9207 7.55134 67.6894 7.55134H42.8678L39.6123 19.6517C53.1805 23.1998 63.1923 35.5417 63.1923 50.2221C63.1923 54.8106 62.2142 59.1707 60.4551 63.1052ZM30.0231 26.2278L28.3643 32.3932L35.7094 34.3243C45.5927 36.9228 52.4615 45.4243 52.4615 55.0907C52.4615 57.1268 52.1631 59.0862 51.6083 60.9393L50.2883 65.3482C45.88 70.789 39.1442 74.2669 31.5962 74.2669C18.3165 74.2669 7.55128 63.5017 7.55128 50.2221C7.55128 37.4709 17.4767 27.038 30.0231 26.2278ZM207.83 7.55134H269.264L265.091 24.0456H250.826L241.021 63.1931H222.963L233.527 24.0456H221.67L219.583 17.6323L208.232 63.1931H199.12L193.834 49.6334L202.486 17.5724L207.83 7.55134Z"
        fill="black" />
    <path fill-rule="evenodd" clip-rule="evenodd"
        d="M169.109 24.0457L185.579 7.55127H207.806L178.721 37.6582L192.359 54.8925L199.019 63.1923L172.862 63.1922L162.557 49.5869L159.149 63.1923H141.091L150.13 27.4892L157.484 24.0457L136.761 24.0462L126.957 63.1923H108.899L119.463 24.0462H107.972L105.758 17.6329L94.3669 63.1923H76.3091L77.5996 58.4116C75.0494 61.3096 71.1786 63.1923 66.0642 63.1923H58.8423C59.6046 60.6462 60.0128 57.8709 60.0128 55.0912C60.0128 41.6965 50.5343 30.4146 37.6295 27.0218L42.8679 7.55127H67.6895C75.5229 7.55127 81.8732 13.4625 81.8732 20.5544C81.8732 27.6462 79.2138 33.1129 72.2732 34.6763C72.2577 34.6777 72.2439 34.6847 72.2339 34.6951C72.2231 34.7063 72.2164 34.7215 72.2164 34.7381C72.2164 34.7702 72.2411 34.797 72.2732 34.8C77.7366 36.4958 80.5682 40.075 81.1568 45.2301C81.2912 46.4028 81.3291 47.6301 81.258 48.8885C81.131 51.1346 80.6709 53.2229 79.9638 55.0329C82.5031 52.8075 84.2566 48.064 84.2566 42.5717C84.2566 40.4105 83.985 38.3652 83.501 36.5436L91.3245 7.55127H173.085L169.109 24.0457ZM199.12 63.1923H208.232L219.583 17.6329L221.67 24.0462H233.527L222.963 63.1923H241.021L250.826 24.0462H265.091L269.264 7.55127H269.561H207.83L202.486 17.573L193.834 49.6339L199.12 63.1923Z"
        fill="white" />
    <ellipse cx="31.5961" cy="50.2214" rx="24.0449" ry="24.0449" fill="#FF4400" />
</svg>
    